/* XPM */
static char *_885e0a80d0d4f71c198f39ee61e4175rKulUnII1edaUvYf[] = {
/* columns rows colors chars-per-pixel */
"50 50 93 2 ",
"   c black",
".  c #020202",
"X  c gray1",
"o  c #010101",
"O  c #040404",
"+  c #0C0001",
"@  c #2B0101",
"#  c #520202",
"$  c #740202",
"%  c #8C0202",
"&  c #980101",
"*  c #970101",
"=  c #8B0202",
"-  c #740203",
";  c #000001",
":  c #030000",
">  c #2B0201",
",  c #750203",
"<  c #BB0202",
"1  c #E50202",
"2  c #F80101",
"3  c #FD0100",
"4  c #FF0100",
"5  c red",
"6  c #FE0000",
"7  c #FE0101",
"8  c #F70101",
"9  c #E40202",
"0  c #2B0202",
"q  c #030001",
"w  c #010001",
"e  c #290202",
"r  c #8C0303",
"t  c #DF0202",
"y  c #FD0000",
"u  c #8D0203",
"i  c #010000",
"p  c #0B0001",
"a  c #670202",
"s  c #D90202",
"d  c #680203",
"f  c #0B0101",
"g  c #1A0102",
"h  c #990303",
"j  c #F50101",
"k  c #200102",
"l  c #B20203",
"z  c #FD0001",
"x  c #B00303",
"c  c #B10303",
"v  c #190102",
"b  c #FD0101",
"n  c #980303",
"m  c #0B0102",
"M  c #F60101",
"N  c #670203",
"B  c #D80202",
"V  c #290102",
"C  c #020001",
"Z  c #8D0303",
"A  c #FF0101",
"S  c #2A0102",
"D  c #750202",
"F  c #740302",
"G  c #BA0202",
"H  c #0B0000",
"J  c #F80100",
"K  c #530202",
"L  c #730202",
"P  c #FE0100",
"I  c #980102",
"U  c #DF0203",
"Y  c #DF0201",
"T  c #D70303",
"R  c #000101",
"E  c #680303",
"W  c #F50201",
"Q  c #660303",
"!  c #0A0101",
"~  c #AF0303",
"^  c #1A0101",
"/  c #B00203",
"(  c #FC0101",
")  c #F40201",
"_  c #660203",
"`  c #280102",
"'  c #280101",
"]  c #030101",
"[  c #BA0302",
"{  c #8D0202",
"}  c #970202",
"|  c #970102",
" . c white",
/* pixels */
"                                    . X X X X . X X . . X X X .                                     ",
"                              . X . .                       o . . X .                               ",
"                          . O .                                   o . X .                           ",
"                      o O .                                             . X o                       ",
"                    X X                                                     X X                     ",
"                o X .                                                         . O o                 ",
"              o O o                   + @ # $ % & * = - # @ + ;                 o O o               ",
"            o X                 : > , < 1 2 3 4 5 5 6 7 8 9 < , 0 q                 X o             ",
"          o X               w e r t y 5 6 6 y y y 6 y y 6 6 5 y t u e i               O o           ",
"          X o             p a s 7 6 6 6 6 6 6 6 6 6 6 6 6 6 6 y 6 7 s d f             o O           ",
"        X .             g h j 5 6 6 6 6 6 6 6 6 6 6 6 6 6 6 6 y 6 6 5 j h g             . X         ",
"      o X             k l y 6 y 6 6 6 6 6 6 6 6 6 6 6 6 6 6 6 6 6 6 y 6 z x k ;           X .       ",
"      X             g l 7 6 6 6 6 6 6 6 6 6 6 6 6 6 6 6 6 6 6 6 6 6 6 6 y 7 c v             O       ",
"    . .           p h y 6 y 6 6 6 6 6 6 6 6 6 6 6 6 6 6 6 6 6 6 6 6 6 6 y 6 b n m           . .     ",
"    X           ; a M 6 6 6 6 6 6 6 6 6 6 6 6 6 6 6 6 6 6 6 6 6 6 6 6 6 6 6 6 M N             X     ",
"  . .           e B 5 y 6 6 6 6 6 6 6 6 6 6 6 6 6 6 6 6 6 6 6 6 6 6 6 6 6 6 6 5 B V           . .   ",
"  X           C Z A 6 6 6 6 6 6 6 6 6 6 6 6 6 6 6 6 6 6 6 6 6 6 6 6 6 6 6 6 6 y 7 Z q           X   ",
"o X           0 t 5 6 6 6 6 6 6 6 6 6 6 6 6 6 6 6 6 6 6 6 6 6 6 6 6 6 6 6 6 6 y 6 t S           X o ",
". .           D 6 6 6 6 6 6 6 6 6 6 6 6 6 6 6 6 6 6 6 6 6 6 6 6 6 6 6 6 6 6 6 6 6 b F           . . ",
"X           + G 5 6 6 6 6 6 6 6 6 6 6 6 6 6 6 6 6 6 6 6 6 6 6 6 6 6 6 6 6 6 6 6 6 5 G H           X ",
"X           @ 1 5 6 6 6 6 6 6 6 6 6 6 6 6 6 6 6 6 6 6 6 6 6 6 6 6 6 6 6 6 6 6 6 6 5 1 @           X ",
"X           # 2 6 6 6 6 6 6 6 6 6 6 6 6 6 6 6 6 6 6 6 6 6 6 6 6 6 6 6 6 6 6 6 6 6 6 J K           X ",
".           L P y 6 6 6 6 6 6 6 6 6 6 6 6 6 6 6 6 6 6 6 6 6 6 6 6 6 6 6 6 6 6 6 6 6 5 D           . ",
".           % 4 y 6 6 6 6 6 6 6 6 6 6 6 6 6 6 6 6 6 6 6 6 6 6 6 6 6 6 6 6 6 6 6 6 6 5 %           . ",
"X           & 5 y 6 6 6 6 6 6 6 6 6 6 6 6 6 6 6 6 6 6 6 6 6 6 6 6 6 6 6 6 6 6 6 6 6 5 I           X ",
"X           & 5 y 6 6 6 6 6 6 6 6 6 6 6 6 6 6 6 6 6 6 6 6 6 6 6 6 6 6 6 6 6 6 6 6 6 5 I           X ",
".           = 5 y 6 6 6 6 6 6 6 6 6 6 6 6 6 6 6 6 6 6 6 6 6 6 6 6 6 6 6 6 6 6 6 6 6 5 %           . ",
"X           $ 7 y 6 6 6 6 6 6 6 6 6 6 6 6 6 6 6 6 6 6 6 6 6 6 6 6 6 6 6 6 6 6 6 6 6 5 ,           . ",
"X           # 8 6 6 6 6 6 6 6 6 6 6 6 6 6 6 6 6 6 6 6 6 6 6 6 6 6 6 6 6 6 6 6 6 6 6 2 #           X ",
"X           @ 9 5 6 6 6 6 6 6 6 6 6 6 6 6 6 6 6 6 6 6 6 6 6 6 6 6 6 6 6 6 6 6 6 6 6 1 @           X ",
"X o         + < 5 6 6 6 6 6 6 6 6 6 6 6 6 6 6 6 6 6 6 6 6 6 6 6 6 6 6 6 6 6 6 6 6 5 G H         o X ",
". .           D 6 y 6 6 6 6 6 6 6 6 6 6 6 6 6 6 6 6 6 6 6 6 6 6 6 6 6 6 6 6 6 6 6 3 ,           . . ",
"o X           0 U 6 6 6 6 6 6 6 6 6 6 6 6 6 6 6 6 6 6 6 6 6 6 6 6 6 6 6 6 6 6 y 5 Y S           X o ",
"  X o         C Z A 6 6 6 6 6 6 6 6 6 6 6 6 6 6 6 6 6 6 6 6 6 6 6 6 6 6 6 6 6 y P % C           X   ",
"  . .           e B 5 y 6 6 6 6 6 6 6 6 6 6 6 6 6 6 6 6 6 6 6 6 6 6 6 6 6 6 y 5 T V           . .   ",
"    X           R E M 6 6 6 6 6 6 6 6 6 6 6 6 6 6 6 6 6 6 6 6 6 6 6 6 6 6 6 y W Q ;           X     ",
"    . .           f n b y y 6 6 6 6 6 6 6 6 6 6 6 6 6 6 6 6 6 6 6 6 6 6 y y b n !           . .     ",
"      X             v ~ 7 6 6 6 6 6 6 6 6 6 6 6 6 6 6 6 6 6 6 6 6 6 6 6 y b x ^             X       ",
"      o X             k / b 6 6 6 6 6 6 6 6 6 6 6 6 6 6 6 6 6 6 6 6 y y ( x k             X o       ",
"        X .           ; v n j 5 y y 6 6 6 6 6 6 6 6 6 6 6 6 6 6 y y 5 ) n g             o X         ",
"          X o             m _ B b 6 6 6 6 6 6 6 6 6 6 6 6 6 6 6 6 3 B _ f             o X           ",
"          o X                 ` r t ( 5 6 6 6 6 6 6 6 6 6 6 5 y Y % ' ;               X o           ",
"            o X                 ] S F [ 9 J 6 5 5 5 5 6 J 9 G , S q                 X o             ",
"              o X o                   H @ # D { } | % , # @ H                   o X o               ",
"                o X .                                                         o X o                 ",
"                    X X                                                     X X                     ",
"                      o O .                                             . X o                       ",
"                          . X .                                     . X .                           ",
"                              . X X . o                     o o X X .                               ",
"                                    . X X X . o . . o . X X X .                                     "
};
